<svg xmlns="http://www.w3.org/2000/svg" viewBox="0 0 1000 215.5">
  <path d="M 169.5,0.1 C 75.9,0.1 0,76 0,169.6 c 0,25.5 5.7,49.7 15.8,71.4 h 81.5 v -17.8 h -64.3 c 22.9,54 76.3,91.9 138.3,91.9 83.6,0 151.3,-67.7 151.3,-151.3 0,-83.6 -67.7,-151.3 -151.3,-151.3 -83.6,0 -151.3,67.7 -151.3,151.3 0,0.1 0,0.1 0,0.2 h 17.8 c 0,-0.1 0,-0.1 0,-0.2 0,-73.7 59.8,-133.5 133.5,-133.5 73.7,0 133.5,59.8 133.5,133.5 0,73.7 -59.8,133.5 -133.5,133.5 -54.9,0 -102.1,-33.2 -122.8,-80.5 h 122.8 v -17.8 h -128.8 c -1.4,-5.6 -2.5,-11.3 -3.2,-17.1 h 132 v -17.8 h -132.8 c 0,-2.9 -0.1,-5.9 -0.1,-8.9 0,-2.9 0.1,-5.8 0.2,-8.7 h 132.7 v -17.8 h -131.1 c 0.8,-5.9 1.9,-11.7 3.4,-17.3 h 127.7 v -17.8 h -122.1 c 20.6,-47.5 67.9,-80.8 122.9,-80.8 73.7,0 133.5,59.8 133.5,133.5 0,73.7 -59.8,133.5 -133.5,133.5 -62.1,0 -115.5,-38 -138.3,-92.1 h 64.3 v -17.8 h -81.5 c -10.1,21.7 -15.8,45.9 -15.8,71.4 0,93.6 75.9,169.5 169.5,169.5 93.6,0 169.5,-75.9 169.5,-169.5 0,-93.6 -75.9,-169.5 -169.5,-169.5 z" fill="#ea1d2c"/>
  <path d="m 359.1,169.6 c 0,-25.5 20.7,-46.2 46.2,-46.2 25.5,0 46.2,20.7 46.2,46.2 0,25.5 -20.7,46.2 -46.2,46.2 -25.5,0 -46.2,-20.7 -46.2,-46.2 z m 110.3,0 c 0,-35.4 -28.7,-64.1 -64.1,-64.1 -35.4,0 -64.1,28.7 -64.1,64.1 0,35.4 28.7,64.1 64.1,64.1 35.4,0 64.1,-28.7 64.1,-64.1 z" fill="#ea1d2c"/>
  <path d="m 535.9,123.4 h 17.8 v 17.8 h 0.4 c 5.1,-11.5 16.6,-19.7 29.9,-19.7 20.7,0 37.5,16.8 37.5,37.5 v 72.6 h -17.8 v -72.6 c 0,-10.9 -8.8,-19.7 -19.7,-19.7 -10.9,0 -19.7,8.8 -19.7,19.7 v 72.6 h -17.8 v -72.6 c 0,-10.9 -8.8,-19.7 -19.7,-19.7 -10.9,0 -19.7,8.8 -19.7,19.7 v 72.6 h -17.8 v -108.2 h 17.8 v 17.8 h 0.4 c 5.1,-11.5 16.6,-19.7 29.9,-19.7 13.3,0 24.8,8.2 29.9,19.7 h 0.4 z" fill="#ea1d2c"/>
  <path d="m 640.2,123.4 h 17.8 v 17.8 h 0.4 c 5.1,-11.5 16.6,-19.7 29.9,-19.7 20.7,0 37.5,16.8 37.5,37.5 v 72.6 h -17.8 v -72.6 c 0,-10.9 -8.8,-19.7 -19.7,-19.7 -10.9,0 -19.7,8.8 -19.7,19.7 v 72.6 h -17.8 v -108.2 z" fill="#ea1d2c"/>
  <path d="m 744.5,123.4 h 17.8 v 108.2 h -17.8 z" fill="#ea1d2c"/>
  <path d="m 744.5,87.8 h 17.8 v 17.8 h -17.8 z" fill="#ea1d2c"/>
  <path d="m 959.8,123.4 h 17.8 v 108.2 h -17.8 v -17.8 h -0.4 c -9.2,11.5 -23.3,19.7 -39.2,19.7 -35.4,0 -64.1,-28.7 -64.1,-64.1 0,-35.4 28.7,-64.1 64.1,-64.1 15.9,0 30,8.2 39.2,19.7 h 0.4 z m -39.6,92.3 c 25.5,0 46.2,-20.7 46.2,-46.2 0,-25.5 -20.7,-46.2 -46.2,-46.2 -25.5,0 -46.2,20.7 -46.2,46.2 0,25.5 20.7,46.2 46.2,46.2 z" fill="#ea1d2c"/>
  <path d="m 849.1,123.4 h 17.8 v 108.2 h -17.8 v -17.8 h -0.4 c -9.2,11.5 -23.3,19.7 -39.2,19.7 -35.4,0 -64.1,-28.7 -64.1,-64.1 0,-35.4 28.7,-64.1 64.1,-64.1 15.9,0 30,8.2 39.2,19.7 h 0.4 z m -39.6,92.3 c 25.5,0 46.2,-20.7 46.2,-46.2 0,-25.5 -20.7,-46.2 -46.2,-46.2 -25.5,0 -46.2,20.7 -46.2,46.2 0,25.5 20.7,46.2 46.2,46.2 z" fill="#ea1d2c"/>
</svg>